<svg width="128" height="128" viewBox="0 0 128 128" fill="none" xmlns="http://www.w3.org/2000/svg">
<g clip-path="url(#clip0_22_745)">
<path d="M64 128C99.3462 128 128 99.3462 128 64C128 28.6538 99.3462 0 64 0C28.6538 0 0 28.6538 0 64C0 99.3462 28.6538 128 64 128Z" fill="white" fill-opacity="0.2"/>
<path d="M89.0002 40C85.0702 49.55 77.4902 52.15 68.0002 53C62.1002 70.33 68.6202 89.47 81.0002 102C104.88 90.71 109.26 57 89.0002 40Z" fill="white"/>
<path d="M72.43 45.31C76.8752 43.4438 80.5876 40.1741 83 36C80.3911 34.5831 77.6257 33.4756 74.76 32.7L80.32 25.9C80.7968 25.282 81.014 24.5025 80.9254 23.727C80.8368 22.9515 80.4494 22.241 79.8456 21.7465C79.2417 21.2519 78.4688 21.0122 77.6911 21.0782C76.9133 21.1442 76.1919 21.5107 75.68 22.1L68.13 31.33C65.3884 30.97 62.6116 30.97 59.87 31.33L52.32 22.1C52.0749 21.7823 51.7685 21.517 51.419 21.3198C51.0695 21.1226 50.6839 20.9975 50.2852 20.9519C49.8865 20.9064 49.4827 20.9413 49.0977 21.0546C48.7128 21.1679 48.3544 21.3573 48.044 21.6116C47.7335 21.8658 47.4772 22.1798 47.2902 22.5349C47.1033 22.89 46.9894 23.279 46.9555 23.6789C46.9216 24.0787 46.9682 24.4813 47.0927 24.8629C47.2171 25.2444 47.4168 25.5971 47.68 25.9L53.24 32.7C50.3743 33.4756 47.6089 34.5831 45 36C47.6882 40.5911 51.9411 44.0595 56.9791 45.7695C62.0171 47.4794 67.5025 47.3163 72.43 45.31Z" fill="white"/>
<path d="M46.9999 50C43.4403 47.4912 40.6661 44.0235 38.9999 40C37.9999 40.87 23.5699 53.39 25.9999 73C28.4599 92.85 45.8599 101.46 46.9999 102C59.3799 89.47 65.8999 70.33 59.9999 53C57.9299 52.82 51.4899 53.14 46.9999 50Z" fill="white"/>
</g>
<defs>
<clipPath id="clip0_22_745">
<rect width="128" height="128" fill="white"/>
</clipPath>
</defs>
</svg>
