<svg width="128" height="128" viewBox="0 0 128 128" fill="none" xmlns="http://www.w3.org/2000/svg">
<g clip-path="url(#clip0_22_737)">
<path d="M64 128C99.3462 128 128 99.3462 128 64C128 28.6538 99.3462 0 64 0C28.6538 0 0 28.6538 0 64C0 99.3462 28.6538 128 64 128Z" fill="white" fill-opacity="0.2"/>
<path d="M96.15 64C96.1519 69.0185 94.9543 73.9648 92.6571 78.4266C90.3598 82.8884 87.0294 86.7365 82.9435 89.6503C78.8575 92.5641 74.1343 94.4592 69.1675 95.1775C64.2007 95.8959 59.1341 95.4167 54.39 93.78C60.5883 91.6432 65.9653 87.6256 69.7715 82.2874C73.5778 76.9491 75.6235 70.5562 75.6235 64C75.6235 57.4438 73.5778 51.0509 69.7715 45.7127C65.9653 40.3744 60.5883 36.3568 54.39 34.22C59.1341 32.5833 64.2007 32.1041 69.1675 32.8225C74.1343 33.5408 78.8575 35.4359 82.9435 38.3497C87.0294 41.2634 90.3598 45.1116 92.6571 49.5734C94.9543 54.0353 96.1519 58.9815 96.15 64ZM64 24C56.0888 24 48.3552 26.346 41.7772 30.7412C35.1992 35.1365 30.0723 41.3836 27.0448 48.6927C24.0173 56.0017 23.2252 64.0444 24.7686 71.8036C26.312 79.5629 30.1216 86.6902 35.7157 92.2843C41.3098 97.8784 48.4372 101.688 56.1964 103.231C63.9556 104.775 71.9983 103.983 79.3074 100.955C86.6164 97.9277 92.8635 92.8008 97.2588 86.2228C101.654 79.6448 104 71.9113 104 64C104 53.3913 99.7857 43.2172 92.2843 35.7157C84.7828 28.2143 74.6087 24 64 24Z" fill="white"/>
</g>
<defs>
<clipPath id="clip0_22_737">
<rect width="128" height="128" fill="white"/>
</clipPath>
</defs>
</svg>
