<svg width="128" height="128" viewBox="0 0 128 128" fill="none" xmlns="http://www.w3.org/2000/svg">
<g clip-path="url(#clip0_22_751)">
<path d="M64 128C99.3462 128 128 99.3462 128 64C128 28.6538 99.3462 0 64 0C28.6538 0 0 28.6538 0 64C0 99.3462 28.6538 128 64 128Z" fill="white" fill-opacity="0.2"/>
<path d="M100.89 57.49C99.2382 49.2714 94.873 41.846 88.4951 36.4057C82.1172 30.9653 74.0965 27.8255 65.7202 27.49C67.2481 23.2771 67.1698 18.6488 65.5002 14.49C63.5427 18.9021 60.6412 22.8311 57.0002 26C55.4486 27.4645 53.6813 28.682 51.7602 29.61C49.8556 30.3437 47.9928 31.1817 46.1802 32.12C39.1226 36.0496 33.5138 42.1422 30.1802 49.5C28.2596 53.7563 27.1571 58.336 26.9302 63C31.0601 61.7078 35.2687 60.6824 39.5302 59.93C43.3102 59.27 47.1402 58.93 50.9402 58.42C57.9402 57.42 63.4502 53.36 67.3102 47.42C72.1896 48.9896 76.2743 52.3831 78.7115 56.8923C81.1487 61.4015 81.7501 66.6778 80.3901 71.6198C79.0301 76.5618 75.8138 80.7875 71.4127 83.4148C67.0115 86.0421 61.7657 86.868 56.7702 85.72C58.6959 90.0438 61.7364 93.778 65.5802 96.54C67.5369 97.9424 69.6769 99.0696 71.9402 99.89C72.9434 100.385 74.0519 100.629 75.1702 100.6C76.4633 100.286 77.7176 99.8302 78.9102 99.24C86.8237 95.8723 93.3334 89.8782 97.3412 82.2689C101.349 74.6595 102.61 65.9007 100.91 57.47L100.89 57.49ZM40.8102 45C41.8943 43.9201 43.2117 43.1034 44.6611 42.6128C46.1104 42.1222 47.6531 41.9707 49.1702 42.17C49.3497 43.681 49.1845 45.213 48.687 46.651C48.1894 48.089 47.3724 49.3955 46.2975 50.4724C45.2225 51.5494 43.9174 52.3686 42.4803 52.8688C41.0432 53.3689 39.5115 53.5368 38.0002 53.36C37.7983 51.8444 37.9466 50.3028 38.4337 48.8535C38.9209 47.4042 39.7339 46.0859 40.8102 45ZM60.4102 102.06C52.608 101.252 45.2574 98.0111 39.3981 92.7961C33.5389 87.5811 29.4676 80.6558 27.7602 73C35.8953 68.5701 45.0495 66.3496 54.3102 66.56C51.1515 71.3607 49.6614 77.0679 50.0702 82.8C50.3202 86.5621 51.3722 90.2272 53.1556 93.5491C54.9391 96.8711 57.4126 99.773 60.4102 102.06Z" fill="white"/>
</g>
<defs>
<clipPath id="clip0_22_751">
<rect width="128" height="128" fill="white"/>
</clipPath>
</defs>
</svg>
