<svg width="128" height="128" viewBox="0 0 128 128" fill="none" xmlns="http://www.w3.org/2000/svg">
<g clip-path="url(#clip0_22_762)">
<path d="M64 128C99.3462 128 128 99.3462 128 64C128 28.6538 99.3462 0 64 0C28.6538 0 0 28.6538 0 64C0 99.3462 28.6538 128 64 128Z" fill="white" fill-opacity="0.2"/>
<path d="M22.9298 81.14L27.9298 93.33C28.2967 94.2302 28.9653 94.9748 29.8209 95.4362C30.6765 95.8977 31.666 96.0472 32.6197 95.8593C33.5735 95.6714 34.4323 95.1577 35.0489 94.4062C35.6656 93.6547 36.0017 92.7121 35.9998 91.74V56.26C36.0017 55.2879 35.6656 54.3453 35.0489 53.5938C34.4323 52.8423 33.5735 52.3286 32.6197 52.1407C31.666 51.9528 30.6765 52.1023 29.8209 52.5638C28.9653 53.0252 28.2967 53.7698 27.9298 54.67L22.9298 66.86C21.0495 71.4343 21.0495 76.5657 22.9298 81.14Z" fill="white"/>
<path d="M101.5 91.25V38.75C101.5 37.3576 100.947 36.0223 99.9623 35.0377C98.9777 34.0531 97.6424 33.5 96.25 33.5H93.75C92.3576 33.5 91.0223 34.0531 90.0377 35.0377C89.0531 36.0223 88.5 37.3576 88.5 38.75V55.83C88.5 56.2729 88.3241 56.6977 88.0109 57.0109C87.6977 57.3241 87.2729 57.5 86.83 57.5C86.6112 57.5 86.3945 57.4567 86.1924 57.3727C85.9904 57.2886 85.8069 57.1655 85.6527 57.0103C85.4984 56.8551 85.3763 56.6709 85.2935 56.4683C85.2106 56.2658 85.1687 56.0488 85.17 55.83V38.75C85.17 37.3576 84.6169 36.0223 83.6323 35.0377C82.6477 34.0531 81.3124 33.5 79.92 33.5H77.42C76.0276 33.5 74.6923 34.0531 73.7077 35.0377C72.7231 36.0223 72.17 37.3576 72.17 38.75V55.83C72.17 56.2729 71.9941 56.6977 71.6809 57.0109C71.3677 57.3241 70.9429 57.5 70.5 57.5C70.0571 57.5 69.6323 57.3241 69.3191 57.0109C69.0059 56.6977 68.83 56.2729 68.83 55.83V38.75C68.83 37.3576 68.2769 36.0223 67.2923 35.0377C66.3077 34.0531 64.9724 33.5 63.58 33.5H61.08C59.6876 33.5 58.3523 34.0531 57.3677 35.0377C56.3831 36.0223 55.83 37.3576 55.83 38.75V55.83C55.8313 56.0488 55.7894 56.2658 55.7065 56.4683C55.6237 56.6709 55.5016 56.8551 55.3473 57.0103C55.1931 57.1655 55.0096 57.2886 54.8076 57.3727C54.6055 57.4567 54.3888 57.5 54.17 57.5C53.7271 57.5 53.3023 57.3241 52.9891 57.0109C52.6759 56.6977 52.5 56.2729 52.5 55.83V38.75C52.5 37.3576 51.9469 36.0223 50.9623 35.0377C49.9777 34.0531 48.6424 33.5 47.25 33.5H44.75C43.3576 33.5 42.0223 34.0531 41.0377 35.0377C40.0531 36.0223 39.5 37.3576 39.5 38.75V91.25C39.5 92.6424 40.0531 93.9777 41.0377 94.9623C42.0223 95.9469 43.3576 96.5 44.75 96.5H96.25C97.6424 96.5 98.9777 95.9469 99.9623 94.9623C100.947 93.9777 101.5 92.6424 101.5 91.25Z" fill="white"/>
</g>
<defs>
<clipPath id="clip0_22_762">
<rect width="128" height="128" fill="white"/>
</clipPath>
</defs>
</svg>
