<svg width="128" height="128" viewBox="0 0 128 128" fill="none" xmlns="http://www.w3.org/2000/svg">
<g clip-path="url(#clip0_22_767)">
<path d="M64 128C99.3462 128 128 99.3462 128 64C128 28.6538 99.3462 0 64 0C28.6538 0 0 28.6538 0 64C0 99.3462 28.6538 128 64 128Z" fill="white" fill-opacity="0.2"/>
<path d="M85.6602 42.61C95.9202 49.9 101.89 63.38 97.3602 75.61C93.1002 87.14 81.1902 94.35 69.1902 94.69C71.3445 93.929 73.2797 92.6523 74.8271 90.9713C76.3745 89.2904 77.4869 87.2563 78.0674 85.0466C78.6479 82.8369 78.6788 80.5186 78.1573 78.2942C77.6359 76.0698 76.578 74.0069 75.0759 72.2853C73.5738 70.5638 71.6733 69.236 69.5401 68.4179C67.4069 67.5998 65.1059 67.3161 62.8378 67.5918C60.5698 67.8674 58.4037 68.6939 56.5286 69.9992C54.6534 71.3044 53.1262 73.0488 52.0802 75.08C47.0802 84.68 54.9802 94.25 63.6002 98.08C73.3702 102.44 84.6602 99.22 92.5002 92.48C79.0002 111 51.6702 114.29 36.6702 95.81C26.4702 83.24 26.2302 64.81 35.5002 51.5C33.2702 58.71 35.0002 66 41.0002 70C35.0002 58 39.0002 48.91 47.1402 40.86C51.0602 36.98 56.0502 35.5 60.1402 32.11C64.6402 28.39 65.2302 22.21 64.3702 16.78C67.9237 18.6401 70.8573 21.4967 72.8112 24.9995C74.7651 28.5023 75.6545 32.4992 75.3702 36.5C64.0002 36.55 59.8302 52.37 69.8502 58C79.6102 63.52 90.9402 52.54 85.6602 42.61Z" fill="white"/>
</g>
<defs>
<clipPath id="clip0_22_767">
<rect width="128" height="128" fill="white"/>
</clipPath>
</defs>
</svg>
