<svg width="128" height="128" viewBox="0 0 128 128" fill="none" xmlns="http://www.w3.org/2000/svg">
<g clip-path="url(#clip0_22_690)">
<path d="M64 128C99.3462 128 128 99.3462 128 64C128 28.6538 99.3462 0 64 0C28.6538 0 0 28.6538 0 64C0 99.3462 28.6538 128 64 128Z" fill="white" fill-opacity="0.2"/>
<path d="M98 76.08C93.79 83.2 88.53 86.28 81.75 87.08C80.1 87.26 78.41 87.08 76.75 87.33C75.56 87.48 74.75 88.76 75.75 89.33C80.61 92 76.21 93.26 74.88 94.33C69.8335 98.2743 63.6741 100.531 57.2739 100.78C50.8738 101.03 44.5574 99.2593 39.2193 95.7197C33.8812 92.1802 29.7919 87.0509 27.5307 81.0583C25.2695 75.0658 24.9509 68.5137 26.62 62.33C28.2304 56.1479 31.7642 50.6377 36.7108 46.5952C41.6575 42.5527 47.761 40.1871 54.14 39.84C62.44 39.47 70.78 39.51 79.14 39.74C89.83 40 99.62 38 107.47 29.31C108.92 31.72 108.31 33.84 107.96 35.8C106.701 42.8247 103.039 49.193 97.6002 53.8141C92.1618 58.4352 85.2858 61.0215 78.15 61.13C75.15 61.2 72.15 61.13 69.15 61.21C68.15 61.21 67.01 61.44 67 62.71C67 63.71 68 63.99 68.83 63.94C79.83 63.39 91.27 66.38 101.27 59.2C102 58.67 102.87 57.63 103.82 58.7C104.6 59.57 104.03 60.59 103.54 61.46C99.1 69.39 92.49 74.17 83.32 75C80.68 75.24 78 75 75.32 75.15C73.78 75.23 71.18 74.43 71.1 76.5C71.01 78.88 73.66 77.92 75.1 77.9C82.36 77.82 89.67 78.82 98 76.08Z" fill="#FDFDFE"/>
</g>
<defs>
<clipPath id="clip0_22_690">
<rect width="128" height="128" fill="white"/>
</clipPath>
</defs>
</svg>
