<svg width="128" height="128" viewBox="0 0 128 128" fill="none" xmlns="http://www.w3.org/2000/svg">
<g clip-path="url(#clip0_22_694)">
<path d="M64 128C99.3462 128 128 99.3462 128 64C128 28.6538 99.3462 0 64 0C28.6538 0 0 28.6538 0 64C0 99.3462 28.6538 128 64 128Z" fill="white" fill-opacity="0.2"/>
<path d="M100.25 63C100.25 29.75 59 12.2 35 35.27C10.84 58.55 27.46 100.46 61 101.48C78.5 101.48 86.54 100.01 98.92 96.84C95.1795 95.3091 91.7217 93.1627 88.69 90.49C92.3536 86.911 95.2638 82.6349 97.2491 77.9137C99.2345 73.1925 100.255 68.1217 100.25 63ZM46.25 66C44.0309 65.9958 41.8874 65.194 40.2103 63.7409C38.5332 62.2878 37.4344 60.2802 37.1143 58.0843C36.7942 55.8885 37.2741 53.6508 38.4666 51.7794C39.659 49.9079 41.4845 48.5275 43.61 47.89C43.5427 48.3403 43.506 48.7947 43.5 49.25C43.4966 50.6914 43.8309 52.1135 44.476 53.4025C45.1211 54.6915 46.0591 55.8115 47.2149 56.6728C48.3707 57.534 49.7121 58.1126 51.1318 58.3622C52.5514 58.6118 54.0097 58.5254 55.39 58.11C55.0642 60.3019 53.9623 62.304 52.2849 63.752C50.6075 65.2 48.4659 65.9977 46.25 66ZM77.14 66C74.9234 65.9998 72.7808 65.2028 71.103 63.7544C69.4251 62.306 68.3238 60.3028 68 58.11C69.3802 58.5254 70.8386 58.6118 72.2582 58.3622C73.6778 58.1126 75.0193 57.534 76.1751 56.6728C77.3309 55.8115 78.2689 54.6915 78.914 53.4025C79.5591 52.1135 79.8933 50.6914 79.89 49.25C79.884 48.7947 79.8472 48.3403 79.78 47.89C81.9055 48.5275 83.7309 49.9079 84.9234 51.7794C86.1158 53.6508 86.5958 55.8885 86.2757 58.0843C85.9556 60.2802 84.8568 62.2878 83.1797 63.7409C81.5026 65.194 79.359 65.9958 77.14 66Z" fill="white"/>
</g>
<defs>
<clipPath id="clip0_22_694">
<rect width="128" height="128" fill="white"/>
</clipPath>
</defs>
</svg>
