<svg width="128" height="128" viewBox="0 0 128 128" fill="none" xmlns="http://www.w3.org/2000/svg">
<g clip-path="url(#clip0_22_698)">
<path d="M64 128C99.3462 128 128 99.3462 128 64C128 28.6538 99.3462 0 64 0C28.6538 0 0 28.6538 0 64C0 99.3462 28.6538 128 64 128Z" fill="white" fill-opacity="0.2"/>
<path d="M99.7602 26.37C97.0502 23.99 86.2202 26.6 83.1402 26.97C72.9306 28.0875 62.872 30.3071 53.1402 33.59C43.0902 37.14 34.8902 42.26 30.1402 52.19C27.2477 58.3908 26.1269 65.271 26.9017 72.0693C27.6764 78.8675 30.3167 85.319 34.5302 90.71C36.7202 88.38 39.8602 86.03 41.5902 83.35C43.9002 79.78 42.6402 72.65 42.8102 68.17C42.8602 66.85 43.3502 48.58 44.2402 48.52C45.3202 48.45 48.1102 66.38 49.1102 73.06C49.1477 73.2727 49.2418 73.4714 49.3827 73.6351C49.5236 73.7988 49.7061 73.9214 49.9109 73.99C50.1157 74.0586 50.3353 74.0707 50.5463 74.0249C50.7574 73.9791 50.9522 73.8773 51.1102 73.73C53.4902 71.3767 55.8802 69.0433 58.2802 66.73C59.9202 65.14 60.7402 64.52 61.1802 62.45C61.6202 60.38 61.2902 57.56 61.4302 55.37C61.5102 54.07 62.4302 37.61 63.6102 37.53C64.7902 37.45 67.2602 50.36 68.1802 55.19C68.2246 55.352 68.309 55.5003 68.4257 55.6211C68.5425 55.7419 68.6878 55.8314 68.8482 55.8812C69.0087 55.931 69.1791 55.9396 69.3437 55.9062C69.5084 55.8728 69.6619 55.7984 69.7902 55.69C74.6502 50.98 89.7902 36.26 90.5002 36.92C91.2102 37.58 78.6402 54.48 74.6102 59.92C74.5197 60.0616 74.4662 60.2238 74.4549 60.3916C74.4436 60.5593 74.4748 60.7272 74.5456 60.8797C74.6164 61.0323 74.7244 61.1645 74.8598 61.2641C74.9952 61.3638 75.1536 61.4277 75.3202 61.45C80.2302 61.72 93.3202 62.57 93.4302 63.65C93.5402 64.73 77.2102 67.93 76.0302 68.16C74.0302 68.57 71.8003 68.71 69.8003 69.23C67.2403 69.9 66.8003 70.53 65.1903 72.77C63.1903 75.4367 61.1902 78.1033 59.1902 80.77C59.0556 80.9479 58.9728 81.1595 58.9509 81.3814C58.929 81.6034 58.9689 81.8271 59.0661 82.0279C59.1634 82.2286 59.3143 82.3986 59.502 82.5189C59.6898 82.6393 59.9072 82.7054 60.1302 82.71C66.8902 82.82 85.0202 83.23 85.1302 84.31C85.1802 85.21 67.1302 88.09 65.8302 88.31C61.7002 89.02 54.7202 88.74 51.4102 90.92C48.8602 92.6 46.5102 97.1 44.5702 99.48C50.2745 102.846 56.7768 104.622 63.4002 104.622C70.0237 104.622 76.526 102.846 82.2303 99.48C91.8303 93.75 96.2302 85.04 98.5702 74.48C100.676 64.2424 101.616 53.7991 101.37 43.35C101.37 39.55 101.23 35.74 100.85 31.96C100.7 30.69 100.83 27.31 99.7602 26.37Z" fill="white"/>
</g>
<defs>
<clipPath id="clip0_22_698">
<rect width="128" height="128" fill="white"/>
</clipPath>
</defs>
</svg>
