<svg width="128" height="128" viewBox="0 0 128 128" fill="none" xmlns="http://www.w3.org/2000/svg">
<g clip-path="url(#clip0_22_707)">
<path d="M64 128C99.3462 128 128 99.3462 128 64C128 28.6538 99.3462 0 64 0C28.6538 0 0 28.6538 0 64C0 99.3462 28.6538 128 64 128Z" fill="white" fill-opacity="0.2"/>
<path d="M60.1298 64.26L38.0498 76.7L16.7598 64L37.7598 51.85L60.1298 64.26ZM89.9998 51.3L67.8698 63.74L90.1998 76.19L111.2 64.04L89.9998 51.3ZM61.4498 35.21L40.4498 23.07L39.9998 47.87L61.8398 60.78L61.4498 35.21ZM87.9998 80.13L66.1598 67.22L66.5498 92.79L87.5498 104.93L87.9998 80.13ZM87.6598 47.4V23.1L65.9998 35.18L65.7298 60.52L87.6598 47.4ZM61.9998 92.82L62.2698 67.48L40.3398 80.6V104.9L61.9998 92.82Z" fill="white"/>
</g>
<defs>
<clipPath id="clip0_22_707">
<rect width="128" height="128" fill="white"/>
</clipPath>
</defs>
</svg>
