<svg width="128" height="128" viewBox="0 0 128 128" fill="none" xmlns="http://www.w3.org/2000/svg">
<g clip-path="url(#clip0_22_711)">
<path d="M64 128C99.3462 128 128 99.3462 128 64C128 28.6538 99.3462 0 64 0C28.6538 0 0 28.6538 0 64C0 99.3462 28.6538 128 64 128Z" fill="white" fill-opacity="0.2"/>
<path d="M64 104C56.0888 104 48.3552 101.654 41.7772 97.2588C35.1992 92.8635 30.0723 86.6164 27.0448 79.3073C24.0173 71.9983 23.2252 63.9556 24.7686 56.1964C26.312 48.4372 30.1216 41.3098 35.7157 35.7157C41.3098 30.1216 48.4372 26.312 56.1964 24.7686C63.9556 23.2252 71.9983 24.0173 79.3074 27.0448C86.6164 30.0723 92.8635 35.1992 97.2588 41.7772C101.654 48.3552 104 56.0888 104 64C104 74.6087 99.7857 84.7828 92.2843 92.2843C84.7828 99.7857 74.6087 104 64 104ZM64 40C59.2533 40 54.6131 41.4076 50.6663 44.0447C46.7196 46.6819 43.6434 50.4302 41.8269 54.8156C40.0104 59.201 39.5351 64.0266 40.4612 68.6822C41.3872 73.3377 43.673 77.6141 47.0295 80.9706C50.3859 84.327 54.6623 86.6128 59.3179 87.5389C63.9734 88.4649 68.799 87.9896 73.1844 86.1731C77.5698 84.3566 81.3181 81.2805 83.9553 77.3337C86.5924 73.3869 88 68.7468 88 64C88 57.6348 85.4715 51.5303 80.9706 47.0294C76.4697 42.5286 70.3652 40 64 40Z" fill="white"/>
</g>
<defs>
<clipPath id="clip0_22_711">
<rect width="128" height="128" fill="white"/>
</clipPath>
</defs>
</svg>
