<svg width="128" height="128" viewBox="0 0 128 128" fill="none" xmlns="http://www.w3.org/2000/svg">
<g clip-path="url(#clip0_22_715)">
<path d="M64 128C99.3462 128 128 99.3462 128 64C128 28.6538 99.3462 0 64 0C28.6538 0 0 28.6538 0 64C0 99.3462 28.6538 128 64 128Z" fill="white" fill-opacity="0.2"/>
<path d="M104 59C104 40.59 86.09 25.67 64 25.67C41.91 25.67 24 40.59 24 59C24 69 29.33 78 37.75 84.14C36.5886 86.239 35.986 88.6012 36 91C36 97.63 40.33 103 45.67 103C49.83 103 53.37 99.73 54.74 95.16C55.93 99.69 59.62 103 64 103C68.38 103 72.07 99.69 73.26 95.16C74.63 99.73 78.17 103 82.33 103C87.67 103 92 97.63 92 91C92.014 88.6012 91.4114 86.239 90.25 84.14C98.67 78 104 69 104 59ZM64 79.33C49.36 79.33 37 70 37 59C37 48 49.36 38.67 64 38.67C78.64 38.67 91 48 91 59C91 70 78.64 79.33 64 79.33Z" fill="white"/>
</g>
<defs>
<clipPath id="clip0_22_715">
<rect width="128" height="128" fill="white"/>
</clipPath>
</defs>
</svg>
