<svg width="128" height="128" viewBox="0 0 128 128" fill="none" xmlns="http://www.w3.org/2000/svg">
<g clip-path="url(#clip0_22_719)">
<path d="M64 128C99.3462 128 128 99.3462 128 64C128 28.6538 99.3462 0 64 0C28.6538 0 0 28.6538 0 64C0 99.3462 28.6538 128 64 128Z" fill="white" fill-opacity="0.2"/>
<path d="M84.5399 95.52C66.9899 104.91 43.0599 100.58 32.6699 82.72C23.1699 66.41 28.3399 43.49 44.2399 33.16C60.1399 22.83 83.3399 27.49 94.3399 42.64C107.17 60.3 97.5599 86.78 74.9299 88.89C65.4099 89.77 54.9299 85.36 50.3299 76.59C46.2299 68.69 48.1999 57.21 55.6899 51.99C63.1799 46.77 75.2999 47.73 79.0999 57C80.7099 60.94 80.0999 66.31 77.0399 69.43C74.4599 72 68.4599 73 65.6699 70C64.6699 68.9 63.5799 66.85 65.5199 66.07C66.2799 65.77 68.2199 67.07 69.1299 67.07C73.3199 67.01 74.6499 61.72 72.4999 58.61C69.8899 54.85 64.1199 55.13 60.8399 57.68C56.8399 60.8 56.3399 65.97 58.0699 70.48C61.4299 79.19 72.3599 81.16 79.8099 76.18C87.0499 71.33 88.1499 59.68 84.4799 52.31C79.4799 42.2 65.6599 39.23 55.6899 42.84C45.7199 46.45 39.9299 56.12 39.6899 66.42C39.6084 71.0243 40.6275 75.5815 42.6625 79.7125C44.6976 83.8435 47.6897 87.4287 51.3899 90.17C61.1299 97.29 73.1999 95.52 84.5399 95.52Z" fill="white"/>
</g>
<defs>
<clipPath id="clip0_22_719">
<rect width="128" height="128" fill="white"/>
</clipPath>
</defs>
</svg>
