<svg width="128" height="128" viewBox="0 0 128 128" fill="none" xmlns="http://www.w3.org/2000/svg">
<g clip-path="url(#clip0_1_5)">
<path d="M-2.79753e-06 64C-4.34256e-06 99.3462 28.6538 128 64 128C99.3462 128 128 99.3462 128 64C128 28.6538 99.3462 -1.2525e-06 64 -2.79753e-06C28.6538 -4.34256e-06 -1.2525e-06 28.6538 -2.79753e-06 64Z" fill="white" fill-opacity="0.2"/>
<path d="M64 96.15C58.9815 96.1519 54.0352 94.9543 49.5734 92.657C45.1116 90.3598 41.2635 87.0294 38.3497 82.9434C35.4359 78.8575 33.5408 74.1343 32.8225 69.1675C32.1041 64.2007 32.5833 59.1341 34.22 54.39C36.3568 60.5882 40.3744 65.9653 45.7126 69.7715C51.0509 73.5778 57.4438 75.6235 64 75.6235C70.5562 75.6235 76.9491 73.5778 82.2873 69.7715C87.6256 65.9653 91.6432 60.5882 93.78 54.39C95.4167 59.1341 95.8958 64.2007 95.1775 69.1675C94.4592 74.1343 92.5641 78.8575 89.6503 82.9434C86.7365 87.0294 82.8884 90.3598 78.4266 92.657C73.9647 94.9543 69.0185 96.1519 64 96.15ZM104 64C104 56.0888 101.654 48.3552 97.2588 41.7772C92.8635 35.1992 86.6164 30.0723 79.3073 27.0448C71.9983 24.0173 63.9556 23.2252 56.1964 24.7686C48.4371 26.312 41.3098 30.1216 35.7157 35.7157C30.1216 41.3098 26.312 48.4371 24.7686 56.1964C23.2252 63.9556 24.0173 71.9983 27.0448 79.3073C30.0723 86.6164 35.1992 92.8635 41.7772 97.2588C48.3552 101.654 56.0887 104 64 104C74.6087 104 84.7828 99.7857 92.2843 92.2843C99.7857 84.7828 104 74.6087 104 64Z" fill="white"/>
</g>
<defs>
<clipPath id="clip0_1_5">
<rect width="128" height="128" fill="white" transform="translate(128) rotate(90)"/>
</clipPath>
</defs>
</svg>
