<svg width="128" height="128" viewBox="0 0 128 128" fill="none" xmlns="http://www.w3.org/2000/svg">
<g clip-path="url(#clip0_22_727)">
<path d="M64 128C99.3462 128 128 99.3462 128 64C128 28.6538 99.3462 0 64 0C28.6538 0 0 28.6538 0 64C0 99.3462 28.6538 128 64 128Z" fill="white" fill-opacity="0.2"/>
<path d="M84 64C84 67.9556 82.827 71.8224 80.6294 75.1114C78.4318 78.4004 75.3082 80.9638 71.6537 82.4776C67.9991 83.9913 63.9778 84.3874 60.0982 83.6157C56.2186 82.844 52.6549 80.9392 49.8579 78.1421C47.0608 75.3451 45.156 71.7814 44.3843 67.9018C43.6126 64.0222 44.0087 60.0009 45.5224 56.3463C47.0362 52.6918 49.5996 49.5682 52.8886 47.3706C56.1776 45.173 60.0444 44 64 44C69.3043 44 74.3914 46.1071 78.1421 49.8579C81.8929 53.6086 84 58.6957 84 64ZM85.75 26.33H42.25L20.5 64L42.25 101.67H85.75L107.5 64L85.75 26.33Z" fill="white"/>
</g>
<defs>
<clipPath id="clip0_22_727">
<rect width="128" height="128" fill="white"/>
</clipPath>
</defs>
</svg>
