<svg width="128" height="128" viewBox="0 0 128 128" fill="none" xmlns="http://www.w3.org/2000/svg">
<g clip-path="url(#clip0_1_5)">
<path d="M-2.79753e-06 64C-4.34256e-06 99.3462 28.6538 128 64 128C99.3462 128 128 99.3462 128 64C128 28.6538 99.3462 -1.2525e-06 64 -2.79753e-06C28.6538 -4.34256e-06 -1.2525e-06 28.6538 -2.79753e-06 64Z" fill="white" fill-opacity="0.2"/>
<path d="M54.7238 76.2273V74.7443C54.7238 71.3459 54.9916 68.6374 55.5271 66.619C56.0626 64.6005 56.8556 62.9837 57.906 61.7685C58.9564 60.5327 60.2437 59.4205 61.7678 58.4318C63.086 57.5668 64.26 56.7326 65.2899 55.9293C66.3403 55.1261 67.1642 54.2713 67.7615 53.3651C68.3794 52.4588 68.6883 51.429 68.6883 50.2756C68.6883 49.2457 68.4411 48.3395 67.9468 47.5568C67.4525 46.7741 66.7831 46.1665 65.9387 45.734C65.0942 45.3015 64.157 45.0852 63.1272 45.0852C62.015 45.0852 60.9852 45.3427 60.0377 45.8576C59.1109 46.3725 58.3591 47.0831 57.7824 47.9893C57.2263 48.8956 56.9482 49.946 56.9482 51.1406H41.1301C41.1713 46.6094 42.2011 42.9329 44.2195 40.1112C46.238 37.2688 48.9156 35.1886 52.2522 33.8704C55.5889 32.5316 59.2551 31.8622 63.2508 31.8622C67.6585 31.8622 71.5924 32.511 75.0526 33.8086C78.5129 35.0856 81.2419 37.0217 83.2398 39.6168C85.2377 42.1914 86.2366 45.4148 86.2366 49.2869C86.2366 51.7791 85.8041 53.9727 84.939 55.8675C84.0946 57.7418 82.9102 59.3999 81.3861 60.8416C79.8825 62.2628 78.1215 63.5604 76.1031 64.7344C74.6201 65.5994 73.374 66.4954 72.3648 67.4222C71.3556 68.3285 70.5935 69.3686 70.0786 70.5426C69.5637 71.696 69.3062 73.0966 69.3062 74.7443V76.2273H54.7238ZM62.2622 96.9886C59.873 96.9886 57.8236 96.1545 56.1141 94.4862C54.4252 92.7972 53.591 90.7479 53.6116 88.3381C53.591 85.9901 54.4252 83.9819 56.1141 82.3136C57.8236 80.6452 59.873 79.8111 62.2622 79.8111C64.5278 79.8111 66.5257 80.6452 68.2558 82.3136C70.0065 83.9819 70.8921 85.9901 70.9127 88.3381C70.8921 89.9446 70.4699 91.407 69.646 92.7251C68.8428 94.0227 67.7923 95.0629 66.4948 95.8455C65.1972 96.6076 63.7863 96.9886 62.2622 96.9886Z" fill="white"/>
</g>
<defs>
<clipPath id="clip0_1_5">
<rect width="128" height="128" fill="white" transform="translate(128) rotate(90)"/>
</clipPath>
</defs>
</svg>
