<?xml version="1.0" encoding="utf-8"?>
<svg viewBox="291.103 38.289 433.558 434.685" xmlns="http://www.w3.org/2000/svg">
  <g class="ldl-scale" style="animation-play-state: paused; transform-origin: 479px 474px;" transform="matrix(5.420044898987, 0, 0, 5.420044898987, 2354.082030296326, 2079.729736328125)">
    <circle fill="#333" r="40" cy="50" cx="50" style="fill:rgb(31, 31, 31);animation-play-state:paused"/>
    <g style="animation-play-state:paused">
      <path fill="#fff" d="M44.957 60.377a53.283 53.283 0 0 0-.045-.891c-.184-3.352-.616-11.202 6.358-12.901.629-.154 1.19-.215 1.641-.265l.327-.036c2.295-.252 3.761-.448 4.935-1.25.997-.682 1.708-1.659 1.951-2.683.22-.928.12-1.931-.274-2.751-.167-.347-.484-.756-1.663-1.393-1.849-.997-4.255-1.42-7.576-1.339l-.199.005c-2.041.052-4.152.104-5.811.547-3.526.943-4.627 3.609-4.93 5.679l-8.269-1.21c.915-6.251 5.042-10.939 11.042-12.543 2.616-.699 5.348-.768 7.759-.828l.198-.005c4.839-.127 8.571.622 11.754 2.339 1.601.864 3.884 2.335 5.225 5.122 1.23 2.554 1.541 5.504.876 8.306-.727 3.066-2.633 5.784-5.365 7.652a12.85 12.85 0 0 1-.834.526c-1.297.751-2.716 1.258-4.177 1.581-.671.148-1.35.26-2.031.352-.459.062-.927.028-1.355.23-.401.19-.738.515-.955.901-.584 1.034-.346 2.374-.283 3.505.02.363.098 1.033.11 1.35h-8.409z" style="fill:rgb(255, 255, 255);animation-play-state:paused"/>
    </g>
    <path fill="#fff" d="M54.994 68.444c0 2.792-2.017 5.056-5.516 5.056-3.5 0-5.516-2.264-5.516-5.056 0-2.792 2.017-5.056 5.516-5.056s5.516 2.264 5.516 5.056z" style="fill:rgb(255, 255, 255);animation-play-state:paused"/>
  </g>
</svg>