<svg width="128" height="128" viewBox="0 0 128 128" fill="none" xmlns="http://www.w3.org/2000/svg">
<g clip-path="url(#clip0_22_741)">
<path d="M64 128C99.3462 128 128 99.3462 128 64C128 28.6538 99.3462 0 64 0C28.6538 0 0 28.6538 0 64C0 99.3462 28.6538 128 64 128Z" fill="white" fill-opacity="0.2"/>
<path d="M92.5 76C92.5 83.5587 89.4973 90.8078 84.1525 96.1525C78.8078 101.497 71.5587 104.5 64 104.5C56.4413 104.5 49.1922 101.497 43.8475 96.1525C38.5027 90.8078 35.5 83.5587 35.5 76C35.5 60.26 58.5 25.5 64 25.5C69.5 25.5 92.5 60.26 92.5 76ZM67.5 85.5C63.5218 85.5 59.7064 83.9197 56.8934 81.1066C54.0804 78.2936 52.5 74.4782 52.5 70.5C52.4984 68.5549 52.8789 66.6284 53.62 64.83C51.1675 66.4525 49.1779 68.6835 47.8454 71.3048C46.513 73.9262 45.8832 76.8484 46.0178 79.7859C46.1524 82.7235 47.0466 85.5759 48.6132 88.0644C50.1797 90.553 52.365 92.5927 54.9555 93.9842C57.5461 95.3757 60.4533 96.0714 63.3931 96.0034C66.3329 95.9355 69.2048 95.1061 71.7282 93.5963C74.2517 92.0865 76.3403 89.948 77.7901 87.3896C79.24 84.8313 80.0014 81.9406 80 79C80 78.93 80 78.87 80 78.8C78.6308 80.8612 76.7729 82.5516 74.5919 83.7206C72.4109 84.8896 69.9745 85.5009 67.5 85.5Z" fill="white"/>
</g>
<defs>
<clipPath id="clip0_22_741">
<rect width="128" height="128" fill="white"/>
</clipPath>
</defs>
</svg>
